<svg id="Слой_1" xmlns="http://www.w3.org/2000/svg" viewBox="0 0 143 157.6"><style>.st0{display:none}.st1{display:inline;fill:#2e323a}</style><g id="Layer_1" class="st0"><circle class="st1" cx="71.5" cy="78.8" r="120"/></g><g id="Layer_2"><path d="M65 1.7c3.9-2.2 9-2.2 12.9 0 19.6 11.1 39.3 22.2 58.9 33.3 3.7 2.1 6.2 6.2 6.1 10.4v66.8c0 4.4-2.7 8.6-6.6 10.7-19.6 11-39.1 22.1-58.7 33.1-4 2.3-9.2 2.1-13-.4-5.9-3.4-11.7-6.8-17.6-10.2-1.2-.7-2.6-1.3-3.4-2.4.7-1 2.1-1.1 3.2-1.6 2.4-.8 4.7-2 7-3.2.6-.4 1.3-.2 1.8.1l15 8.7c1.1.6 2.2-.2 3.1-.7 19.2-10.9 38.4-21.7 57.7-32.5.7-.3 1.1-1.1 1-1.9V45.8c.1-.9-.4-1.7-1.2-2.1l-58.5-33c-.7-.5-1.6-.5-2.3 0l-58.5 33c-.8.4-1.3 1.2-1.2 2.1v66.1c-.1.8.4 1.5 1.1 1.9 5.2 3 10.4 5.9 15.6 8.8 2.9 1.6 6.5 2.5 9.8 1.3 2.9-1 4.9-3.9 4.8-7V51.2c-.1-1 .9-1.8 1.8-1.7h7.5c1 0 1.8 1 1.6 2v66.1c0 5.9-2.4 12.3-7.8 15.1-6.7 3.5-15 2.7-21.6-.6-5.7-2.9-11.2-6.2-16.8-9.3-3.9-2-6.6-6.2-6.6-10.7V45.4c0-4.3 2.5-8.5 6.3-10.6C25.9 23.8 45.5 12.7 65 1.7z"/><path d="M82.1 47.9c8.5-.5 17.7-.3 25.4 3.9 5.9 3.2 9.2 10 9.3 16.6-.2.9-1.1 1.4-1.9 1.3h-7.4c-1.1 0-1.7-.9-1.8-1.9-.7-3.2-2.4-6.3-5.4-7.8-4.6-2.3-9.9-2.2-14.8-2.1-3.6.2-7.5.5-10.6 2.6-2.4 1.6-3.1 4.9-2.2 7.5.8 1.9 3 2.5 4.8 3.1 10.3 2.7 21.2 2.4 31.3 6 4.2 1.4 8.3 4.2 9.7 8.6 1.9 5.9 1.1 12.9-3.1 17.6-3.4 3.9-8.3 6-13.2 7.1-6.5 1.5-13.3 1.5-20 .8-6.2-.7-12.7-2.4-17.6-6.6-4.1-3.6-6.1-9.2-5.9-14.5 0-.9 1-1.5 1.8-1.5H68c1-.1 1.7.8 1.8 1.7.5 3 1.6 6.2 4.2 8 5.1 3.3 11.4 3 17.2 3.1 4.8-.2 10.2-.3 14.1-3.5 2.1-1.8 2.7-4.8 2.1-7.5-.6-2.2-2.9-3.2-4.9-3.9-10.2-3.2-21.2-2-31.2-5.7-4.1-1.4-8-4.2-9.6-8.4-2.2-5.9-1.2-13.3 3.4-17.8 4.4-4.3 10.9-6 17-6.7z"/></g></svg>