<svg id="Слой_1" xmlns="http://www.w3.org/2000/svg" viewBox="0 0 140 160.3"><style>.st0{display:none}.st1{display:inline;fill:#2e323a}</style><g id="Layer_1" class="st0"><circle class="st1" cx="70" cy="81.7" r="120"/></g><path d="M122.5 0c-2.2.5-4.3 1-6.4 1.5-.2.1-.5.3-.5.5v6.4c2.3-.5 4.4-.8 6.6-1.3.2 0 .4-.4.4-.5 0-2.2-.1-4.3-.1-6.6zm-8.7 1.8c-1.6.3-3 .6-4.6.9-2.4.5-2.6.6-2.6 2.9V10c2.5-.4 4.8-.9 7.1-1.3V1.8zM105 3.6c-2.3.4-4.6.7-6.7 1.1-.1 0-.4.2-.4.4v6.2c2.2-.3 4.3-.6 6.4-.9.3 0 .7-.4.7-.5.1-2.1 0-4.1 0-6.3zM87.4 6.4c-2.4.3-4.9.6-7.2.9v6.4c2.4-.3 4.8-.6 7.1-.9V6.4zm43.9.3l-6.6 1.5c-.2 0-.4.2-.4.4v5.8c2.4-.5 4.6-.8 6.9-1.3.1-2.1.1-4.1.1-6.4zm-52.7.8c-2.5.3-4.8.5-7.1.7v6.2c2.3-.2 4.4-.3 6.6-.5.2 0 .5-.2.5-.4v-6zm-9.1.9c-2.4.2-4.6.4-6.9.5v6.2c2.4-.2 4.6-.4 6.9-.5V8.4zm-8.8.5c-2.4.1-4.7.2-7.1.4v6.4c2.4-.1 4.8-.2 7.1-.4V8.9zm-33.9.9v6h6.9v-6h-6.9zm9 0v6h7.1v-6h-7.1zm78 .4c-2.2.4-4.3.9-6.4 1.3-.2 0-.7.2-.7.4v5.7c2.4-.4 4.8-.7 7.1-1.1v-6.3zm-8.8 1.7c-8.3 1.1-16.5 2.2-24.8 3.3v14.2c-5.2.2-10.3.3-15.5.5v-5.7c2.2-.1 4.4-.3 6.6-.4V16c-8.9.5-17.9.8-26.8 1.3V31H26.8v6.9h6.9v5.5h-6.9v6.7h8.9v22.1h6.7v5.3h-6.7v8.4h6.7v5.3h-6.9v22.1h-8.8v13.9h6.9v5.3h10.9V146c6 .3 12 .5 18.1.7v-5.3c2.4.2 4.4.4 6.7.5v-8.8l10.8.9v14c8.3 1.1 16.5 2.2 24.8 3.3v-14.8c1.5.1 2.9.1 4.2.2 4.5.3 9 .2 13.5-.9 8.2-2.1 13.8-6.6 16-14.6 1.4-4.9 1.4-9.9.9-15-.4-4.1-1.4-8-3.6-11.7-.7-1.1-1.4-1.8-2.9-1.6-1.2.1-2.6-.1-3.8-.2-1.6-.1-3.3-.1-4.9-.2 0-2.3-.1-4.4 0-6.6 0-.7-.1-1.1-.7-1.3-2.8-.8-5.6-1.7-8.4-2.4-1.6-.4-3.2-.6-4.9-.9v-4.5s1.2-.6 2.5-1c4.4-1.5 8.6-3.1 12.4-5.8 4.2-3.1 7.3-6.9 9.1-11.7 1.6-4.3 1.6-8.8 1.3-13.3-.3-3.4-1-6.8-2.7-9.8-1.3-2.4-3.2-4.4-5.7-5.8-5.2-3-11-3.8-17-3.5-1.7.1-3.5.3-5.3.4v-1.5c-2.3.3-4.7.5-6.9.7v-5.7c2.3-.3 4.7-.6 6.9-.9v-7zm26.3 2.9c-2.3.4-4.7.8-6.9 1.3v6.2c2.3-.4 4.7-.9 6.9-1.3v-6.2zm-8.8 1.6c-2.4.4-4.7.7-6.9 1.1v6.2c2.4-.4 4.6-.7 6.9-1.1v-6.2zm-86.7 1.1v5.3h6.9v-5.3h-6.9zm78 .4c-2.4.4-4.6.7-6.9 1.1v6c2.4-.3 4.7-.8 6.9-1.1v-6zm-87 6.4v5.3h6.9v-5.3h-6.9zm9 0v5.3h7.1v-5.3h-7.1zM0 30.1v5.5c2.4.1 4.8.2 7.1.4v-5.5c-2.3-.2-4.7-.3-7.1-.4zm9 .5v5.5h6.9v-5.5H9zm8.9.4v5.3h6.9V31h-6.9zm42.8 6v5.5c-2.3.1-4.8.3-7.1.4v-5.5c2.4-.1 4.8-.3 7.1-.4zM9 37.6V43h6.9v-5.5H9zm35.9 0h6.7v5.3h-6.7v-5.3zm86.4 0V44c-2.2.3-4.4.5-6.7.7v-6.2c2.1-.3 4.3-.6 6.7-.9zM0 44.1v5.1c0 .1.4.4.5.4h6.6v-5.5H0zm17.9.6v5.5h6.9v-5.5h-6.9zm70.4 1.2c14.6-.4 14.3 5.7 14.4 10 .2 8-3.4 15.1-21 16.4-.6 0-14.7.5-15 .5V46.9c.6.1 19.3-.9 21.6-1zM0 51.1v5.5h7.1v-5.5H0zm17.9.5v5.3h6.9v-5.3h-6.9zm8.9 0v5.5h7.1v-5.5h-7.1zm14.2 0h7v5.3h-7v-5.3zm90.3 2.2v6.6c-2.2.1-4.4.2-6.7.4v-6.2c2.2-.3 4.4-.6 6.7-.8zM9 58.2v5.5h6.9v-5.5H9zm17.8.3v5.3h6.9v-5.3h-6.9zm24.3 0H58v5.3h-6.9v-5.3zM0 64.9v5.7h7.1v-5.7H0zm9 .2v5.5h6.9v-5.5H9zm8.9.2v5.3h6.9v-5.3h-6.9zm0 6.7v5.5h6.9V72h-6.9zm8.9.2v5.3h6.9v-5.3h-6.9zM9 79v5.5h6.9V79H9zm17.8 0v5.5h7.1V79h-7.1zm23.4 0h6.9v5.5h-6.9V79zm-32.3 6.9v5.5h6.9v-5.5h-6.9zm8.9 0v5.3h7.1v-5.3h-7.1zm40 4.7c.4 0 12.9.3 15 .4 22 1.1 22.6 5.1 24.8 12.6.6 2.1.2 4.4-.4 6.6-.4 1.5-1.6 7.3-15.7 7.3-3.5 0-23.2-.7-23.7-.7V90.6zM9 92.8v5.5h6.9v-5.5H9zm8.9 0v5.3H25v-5.3h-7.1zM0 93v5.3h7.1V93H0zm26.8 6.6v5.3h7.1v-5.3h-7.1zm16.2 0h7v5.3h-7v-5.3zm-34 .1v5.3h6.9v-5.3H9zm-9 .2v5.3h7.1v-5.3H0zm17.9 6.6v5.3h6.9v-5.3h-6.9zm8.9 0v5.3h6.9v-5.3h-6.9zm16.2 0h7v5.3h-7v-5.3zm-34 .2v5.3h6.9v-5.3H9zm115.6 4c2.2.2 4.4.3 6.7.5v6.4c-2.3-.3-4.5-.5-6.7-.7v-6.2zM9 113.4v5.5h6.9v-5.5H9zm8.9 6.8v5.5H25v-5.5h-7.1zm18 0h6.9v5.3h-6.9v-5.3zm-26.9.3v5.3h6.9v-5.3H9zm62.9.2h6.9v5.7c-1.2-.1-5.8-.3-6.9-.4v-5.3zm17.6.7c1.8.1 3.6.3 5.3.4.6 0 1.1.1 1.6.2v5.5c-1.7-.1-6.3-.3-6.9-.4v-5.7zm-71.6 5.7v5.3h6.9v-5.3h-6.9zm-10.8.4c-2.4.1-4.8.2-7.1.4v5.5c2.4-.1 4.8-.2 7.1-.4v-5.5zm19.7 6.3v5.3h7.1v-5.3h-7.1zm9 0v5.3h7.1v-5.3h-7.1zm17.8 0h7.1v5.3h-7.1v-5.3zm-37.7.2c-2.4.1-4.6.3-6.9.4v5.5c2.4-.1 4.6-.3 6.9-.4V134zm2 0v5.3h6.9V134h-6.9zm-10.8.4c-2.4.1-4.8.2-7.1.4v5.7c2.4-.2 4.8-.4 7.1-.5v-5.6zm64.2.5v5.5c2.4.2 4.8.5 7.1.7.1-.2.2-.3.2-.4v-3.3c0-2-.1-2-2.2-2.2h-.5c-1.5 0-3.1-.2-4.6-.3zm35.6 3.5v6c2.3.4 4.6.7 6.9 1.1v-6c-2.4-.3-4.6-.8-6.9-1.1zm8.7 1.4v6c2.3.4 4.6.7 6.9 1.1v-6c-2.3-.3-4.6-.8-6.9-1.1zm-79.8.8v5.5h7.1v-5.5h-7.1zm-17.9.2v5.5H25v-5.5h-7.1zm106.5.3v6.2c2.3.4 4.6.8 6.9 1.3v-6.2c-2.3-.4-4.6-.9-6.9-1.3zm-52.9.8v5.7c2.4.2 4.5.3 6.9.5v-5.7c-2.4-.2-4.6-.4-6.9-.5zm0-7v5.7c2.4.2 4.5.3 6.9.5v-5.7c-2.4-.1-4.6-.3-6.9-.5zm35.4 11v6c2.3.4 4.6.9 6.9 1.3V147c-2.3-.4-4.6-.8-6.9-1.1zm-71.1 1.6v6h7.1v-6h-7.1zm8.9.1v6l6.9.2v-6.1l-6.9-.1zm8.7.1c0 2 .1 6.2.1 6.2 1.2.1 6.1.5 7.2.5V148c-2.4-.1-4.8-.2-7.3-.3zm9.2.5v6.2c2.4.2 4.7.4 7.1.5v-6.3c-1.6 0-5.5-.2-7.1-.4zm17.6 1.5v6.4c2.4.3 4.8.6 7.1.9v-6.4c-2.3-.3-4.7-.6-7.1-.9zm9 1.1v6.6c2.4.4 4.8.6 7.1.9v-6.6c-2.4-.3-4.8-.6-7.1-.9zm17.5 2.5v6.4c0 .2.4.5.5.5 2.2.4 4.3.9 6.6 1.3v-6.9c-2.3-.4-4.7-.8-7.1-1.3zm8.9 1.7v6.4c0 .2.2.5.4.5 2.2.5 4.3 1 6.6 1.5v-6.6c0-.2-.3-.5-.5-.5-1.3-.3-2.8-.6-4.2-.9-.8-.2-1.5-.3-2.3-.4z" id="Layer_2"/></svg>