<svg id="Слой_1" xmlns="http://www.w3.org/2000/svg" viewBox="0 0 140 63.2"><style>.st0{display:none}.st1{display:inline;fill:#2e323a}.st2{enable-background:new}</style><g id="Layer_1" class="st0"><circle class="st1" cx="70" cy="81.7" r="120"/></g><path d="M1.5 61.2V3h16.1c9.7 0 17.3 2.5 22.9 7.4 5.6 5 8.3 12.3 8.3 22 0 8.5-2.6 15.5-7.7 20.8-5.1 5.3-12.9 8-23.3 8H1.5zm10.8-10.4h5.3c6.6.1 11.7-1.4 15.2-4.4 3.5-3 5.3-7.6 5.3-13.9 0-6.5-1.8-11.3-5.5-14.4C29 15 23.8 13.5 17 13.5h-4.7v37.3zm44.2 10.4V3h10.8v23.4h21.2V3h10.8v58.2H88.6V36.8H67.3v24.4H56.5zm59.4 0V13.5h-10.8V3h32.3v10.5h-10.8v47.7h-10.7z" class="st2"/></svg>