<svg id="Слой_1" xmlns="http://www.w3.org/2000/svg" viewBox="0 0 143 164"><style>.st0{display:none}.st1{display:inline;fill:#2e323a}</style><g id="Layer_1" class="st0"><circle class="st1" cx="71.5" cy="82.4" r="120"/></g><g id="Layer_2"><path d="M142.9 122V43c0-1.3-.4-2-1.5-2.6-22.7-13.1-45.4-26.2-68-39.3-.5-.3-1.2-.5-1.6-1.1h-.6c-.4.6-1.1.8-1.7 1.1L19.1 30.2c-6.3 3.6-12.7 7-18.8 10.9 3.4 2 6.9 4.1 10.3 6.1 5.7 3.3 11.5 6.6 17.2 9.9 6.1 3.5 12.1 7 18.2 10.5 8.5 4.9 17 9.8 25.4 14.7 7.3-4.2 14.6-8.5 21.9-12.7 6.7-3.9 13.5-7.7 20.2-11.6 6.4-3.7 12.9-7.5 19.3-11.2l8.7-5.1c.8-.4 1.1-.2 1 .6v81.1c.7-.2.4-.8.4-1.4zm-13.6-78.6c-8 4.6-16 9.2-23.9 13.8-8 4.6-15.9 9.2-23.9 13.8-.6.3-1.3.6-1.8 1-.6.5-1.1.3-1.7 0-4.3-2.6-8.6-2.4-12.9-.1-.8.4-1.3.4-2 0-7.2-4.2-14.3-8.3-21.5-12.5-7.3-4.2-14.5-8.4-21.8-12.5-2.2-1.3-4.4-2.5-6.5-3.8-1.5-.9-1.4-3 .1-3.9 8.8-5 17.5-10.1 26.3-15.2 7.8-4.5 15.7-9 23.5-13.6.8-.5 1.4-.4 2.2.1 4.2 2.4 8.5 2.3 12.6-.1.7-.4 1.3-.5 2 0 10.2 5.9 20.5 11.8 30.7 17.8 6.2 3.6 12.4 7.2 18.6 10.7.9.5 1.5 1.2 1.2 2.3.2 1.2-.4 1.7-1.2 2.2z"/><path d="M71.5 162.8V82.4c-8.5-4.9-17-9.8-25.4-14.7-6.1-3.5-12.1-7-18.2-10.5-5.7-3.3-11.5-6.6-17.2-9.9-3.5-2-6.9-4.1-10.3-6.1-.5.4-.2 1-.2 1.5v79.4c0 1.2.4 1.8 1.4 2.4 23 13.3 46 26.6 69.1 39.8.4.2.8.9 1.4.3-.9-.5-.6-1.2-.6-1.8zM66.7 152c0 1-.2 1.6-1.1 2-.9.4-1.6.8-2.7.2-9.3-5.5-18.6-10.8-27.9-16.2l-21.3-12.3c-.8-.4-1.1-1-1.1-1.9-.2-4.8-2.2-8.6-6.4-10.9-1-.5-1-1.3-1-2.1V54.1c0-1.3.6-1.8 1.6-2.5 1-.6 1.5-.1 2.2.3C21.4 59 33.8 66.2 46.1 73.3c4 2.3 8 4.7 12.1 7 .9.5 1.2 1 1.2 2-.1 4.9 2.1 8.4 6.2 10.8 1 .6 1.2 1.1 1.2 2.2-.2 19-.2 37.9-.1 56.7z"/><path d="M142.7 42.6c0-.9-.3-1.1-1-.6l-8.7 5.1c-6.4 3.7-12.8 7.5-19.3 11.2-6.7 3.9-13.5 7.7-20.2 11.6-7.3 4.2-14.6 8.5-21.9 12.7V163c0 .6-.2 1.3.4 1.8.4-.2.9-.4 1.3-.7 17.9-10.3 35.8-20.6 53.6-31l15.9-9.3V44c-.1-.6-.2-1-.1-1.4zm-4.9 39.5v28.3c0 1.1-.2 1.7-1.3 2.3-4 2.4-5.9 6.1-6.1 10.6-.1 1.1-.5 1.7-1.4 2.3-14.1 8.1-28.3 16.3-42.4 24.4-2.3 1.3-4.6 2.7-6.9 4.1-1.1.7-3.4-.5-3.5-1.9V95.9c0-1.4.3-2.2 1.5-3 3.9-2.4 5.9-6 5.9-10.7 0-.8.2-1.3 1-1.8 8.4-4.8 16.7-9.7 25.1-14.6 7.3-4.2 14.5-8.5 21.7-12.7.9-.5 1.7-1.1 2.6-1.5.7-.3 1.2-.9 2.2-.3 1 .6 1.6 1.2 1.6 2.5v28.3z"/></g></svg>